<?xml version="1.0" encoding="UTF-8"?>
<svg width="189px" height="90px" viewBox="0 0 189 90" version="1.1" xmlns="http://www.w3.org/2000/svg" xmlns:xlink="http://www.w3.org/1999/xlink">
    <title>bluebird_vertical</title>
    <g id="bluebird_vertical" stroke="none" stroke-width="1" fill="none" fill-rule="evenodd">
        <g id="Gbbluebird-vertical" transform="translate(17.000000, 1.000000)" fill-rule="nonzero">
            <path d="M32.221295,72.92375 C32.2303837,71.1916328 31.1958775,69.6252077 29.6016098,68.957084 C28.0073422,68.2889603 26.1684443,68.6512028 24.9449597,69.8743926 C23.7214751,71.0975823 23.3552441,72.9399371 24.0175512,74.5397968 C24.6798583,76.1396564 26.2397884,77.1807843 27.9677698,77.17625 C29.1108066,77.2347993 30.2252231,76.8059972 31.0355951,75.9958205 C31.8459671,75.1856438 32.2766838,74.0696852 32.221295,72.92375 M19.5280576,72.92375 C19.5280576,68.42375 23.0520863,64.98125 27.9677698,64.98125 C32.8834532,64.98125 36.396259,68.44625 36.396259,72.92375 C36.396259,77.40125 32.8946763,80.86625 27.9677698,80.86625 C23.0408633,80.86625 19.5280576,77.40125 19.5280576,72.92375" id="Shape" fill="#000000"></path>
            <path d="M12.8391367,73.745 C12.8391367,75.60125 10.9648921,77.12 8.58561151,77.12 C7.4162731,77.2390408 6.25416416,76.8344513 5.41018103,76.0144705 C4.56619789,75.1944897 4.12646866,74.0427962 4.20863309,72.8675 C4.20863309,70.415 6.00431655,68.7275 8.69784173,68.7275 C10.942446,68.7275 12.7830216,70.26875 12.7830216,72.0125 L12.8391367,73.745 Z M13.007482,64.98125 L13.007482,66.75875 L12.9513669,66.75875 C11.5989746,65.5068753 9.79426595,64.864562 7.9571223,64.98125 C5.84800309,64.9226436 3.80658676,65.7304988 2.30618863,67.2175093 C0.805790491,68.7045197 -0.023272549,70.7415313 0.0112230216,72.85625 C-0.0142106738,75.001985 0.834995792,77.0651978 2.36243551,78.5687025 C3.88987523,80.0722072 5.96324922,80.885778 8.10302158,80.82125 C9.90482468,80.9228752 11.6656313,80.2568997 12.9513669,78.9875 L13.007482,78.9875 L13.007482,80.5175 C13.007482,82.57625 11.2566906,84.08375 8.92230216,84.08375 C7.10521602,84.1983548 5.32550047,83.531403 4.02906475,82.25 L1.31309353,84.8825 C3.3404988,86.914514 6.11249237,88.0210948 8.97841727,87.9425 C13.7482014,87.9425 17.0028777,84.725 17.0028777,80.43875 L17.0028777,64.98125 L13.007482,64.98125 Z" id="Shape" fill="#000000"></path>
            <path d="M42.8158273,78.95375 L42.7597122,78.95375 L42.7597122,80.4275 L38.8989928,80.4275 L38.8989928,59.75 L43.0627338,59.75 L43.0627338,66.60125 L43.0627338,66.60125 C44.4271589,65.4867978 46.1527816,64.9142116 47.9110791,64.9925 C50.8104373,64.9056397 53.5254029,66.4138215 54.9888587,68.9242545 C56.4523145,71.4346876 56.4303166,74.5460609 54.9315111,77.0354494 C53.4327057,79.524838 50.6966877,80.9942948 47.7988489,80.86625 C45.942426,80.9660079 44.1310773,80.2708063 42.8158273,78.95375 L42.8158273,78.95375 Z M51.7942446,72.9125 C51.8272151,71.73086 51.3560679,70.5911724 50.4989628,69.7792611 C49.6418577,68.9673497 48.4800955,68.5602285 47.305036,68.66 C45.0604317,68.66 43.0515108,70.13375 43.0515108,71.9225 L43.0515108,73.82375 C43.0515108,75.6575 44.9369784,77.1425 47.305036,77.1425 C48.4776566,77.2573455 49.6424537,76.8576839 50.4989044,76.0466298 C51.3553551,75.2355757 51.8195769,74.092565 51.7717986,72.9125 L51.7942446,72.9125 Z" id="Shape" fill="#231F20"></path>
            <polygon id="Path" fill="#231F20" points="58.1464748 59.75 62.3214388 59.75 62.3214388 80.4275 58.1464748 80.4275"></polygon>
            <path d="M64.8578417,73.9925 L64.8578417,65.375 L69.0215827,65.375 L69.0215827,73.3625 C68.9231519,74.3661524 69.2776285,75.3613397 69.987942,76.0755382 C70.6982556,76.7897366 71.6899694,77.1481024 72.6915108,77.0525 C73.7085192,77.1286301 74.7104758,76.7718125 75.4516169,76.0695686 C76.192758,75.3673247 76.6045181,74.3846214 76.5858993,73.3625 L76.5858993,65.375 L80.8057554,65.375 L80.8057554,80.4275 L76.7766906,80.4275 L76.7766906,79.01 L76.7766906,79.01 C75.3999155,80.265371 73.5860653,80.9280076 71.7263309,80.855 C67.3381295,80.855 64.8578417,78.32375 64.8578417,73.9925 Z" id="Path" fill="#231F20"></path>
            <path d="M82.9830216,72.94625 C83.0030696,70.040341 84.568161,67.3658916 87.088741,65.9303409 C89.609321,64.4947902 92.7024536,64.5162326 95.2029856,65.9865909 C97.7035176,67.4569492 99.2315588,70.152841 99.2115108,73.05875 L99.2115108,74.18375 L87.0906475,74.18375 C87.2365468,76.14125 88.8077698,77.39 91.3217266,77.39 C93.1123515,77.3737485 94.7996123,76.5466988 95.9119424,75.14 L98.5044604,77.75 C96.6956674,79.7915122 94.0654328,80.9072966 91.3441727,80.7875 C86.1030216,80.855 82.9830216,77.75 82.9830216,72.94625 Z M95.16,71.2925 C94.9579856,69.5375 93.4092086,68.37875 91.1758273,68.37875 C88.942446,68.37875 87.371223,69.50375 87.1467626,71.2925 L95.16,71.2925 Z" id="Shape" fill="#231F20"></path>
            <path d="M105.361727,78.95375 L105.361727,78.95375 L105.361727,80.4275 L101.501007,80.4275 L101.501007,59.75 L105.664748,59.75 L105.664748,66.60125 L105.720863,66.60125 C107.086311,65.4886673 108.811204,64.9163233 110.569209,64.9925 C113.468567,64.9056397 116.183532,66.4138215 117.646988,68.9242545 C119.110444,71.4346876 119.088446,74.5460609 117.589641,77.0354494 C116.090835,79.524838 113.354817,80.9942948 110.456978,80.86625 C108.56235,80.9988677 106.703493,80.3011467 105.361727,78.95375 L105.361727,78.95375 Z M114.340144,72.9125 C114.376743,71.7297732 113.906714,70.5878752 113.048743,69.7751441 C112.190773,68.9624129 111.026872,68.5565359 109.850935,68.66 C107.538993,68.66 105.586187,70.13375 105.586187,71.9225 L105.586187,73.82375 C105.586187,75.6575 107.482878,77.1425 109.850935,77.1425 C111.023556,77.2573455 112.188353,76.8576839 113.044804,76.0466298 C113.901254,75.2355757 114.365476,74.092565 114.317698,72.9125 L114.340144,72.9125 Z" id="Shape" fill="#231F20"></path>
            <path d="M120.60259,58.7375 L124.923453,58.7375 L124.923453,62.93375 L120.60259,62.93375 L120.60259,58.7375 Z M120.692374,65.40875 L124.867338,65.40875 L124.867338,80.4275 L120.692374,80.4275 L120.692374,65.40875 Z" id="Shape" fill="#231F20"></path>
            <path d="M127.684317,65.375 L131.601151,65.375 L131.601151,66.815 L131.657266,66.815 C132.819027,65.6485094 134.413505,65.0206014 136.056691,65.0825 C136.887991,65.0924575 137.712952,65.2290171 138.503309,65.4875 L137.627914,69.25625 C136.927424,69.0354873 136.196065,68.9291283 135.461871,68.94125 C133.217266,68.94125 131.859281,70.415 131.859281,73.53125 L131.859281,80.39375 L127.684317,80.39375 L127.684317,65.375 Z" id="Path" fill="#231F20"></path>
            <path d="M138.649209,72.9125 C138.620784,70.7936818 139.456461,68.7550567 140.962842,67.2684168 C142.469222,65.7817769 144.51574,64.9759767 146.628777,65.0375 C148.391277,64.9349933 150.129565,65.4877758 151.510791,66.59 L151.510791,66.59 L151.510791,59.75 L155.674532,59.75 L155.674532,80.4275 L151.813813,80.4275 L151.813813,78.95375 L151.813813,78.95375 C150.483314,80.2817648 148.648523,80.9740253 146.774676,80.855 C144.620353,80.9758302 142.514312,80.1849185 140.96951,78.674902 C139.424708,77.1648854 138.582932,75.0743595 138.649209,72.9125 L138.649209,72.9125 Z M151.533237,73.82375 L151.533237,71.9225 C151.533237,70.13375 149.580432,68.66 147.268489,68.66 C146.092552,68.5565359 144.928652,68.9624129 144.070681,69.7751441 C143.212711,70.5878752 142.742682,71.7297732 142.779281,72.9125 C142.730668,74.0968943 143.197859,75.2440178 144.0595,76.0559076 C144.921141,76.8677975 146.092197,77.2643275 147.268489,77.1425 C149.636547,77.1425 151.510791,75.6575 151.510791,73.82375 L151.533237,73.82375 Z" id="Shape" fill="#231F20"></path>
            <ellipse id="Oval" fill="#00AED6" cx="78.5611511" cy="27.0575" rx="26.9352518" ry="27"></ellipse>
            <path d="M98.8748201,28.91375 C98.7464264,27.0779431 97.448669,25.5359945 95.665036,25.1 C94.2509353,24.77375 92.028777,24.48125 89.6494964,24.21125 L86.0244604,18.29375 C85.0643817,16.7198405 83.5572496,15.5577212 81.7933813,15.03125 L81.7933813,13.90625 C81.7872695,13.0700184 81.1124997,12.3936265 80.2782734,12.3875 L76.1818705,12.3875 C75.3476442,12.3936265 74.6728744,13.0700184 74.6667626,13.90625 L74.6667626,14.58125 C73.3648921,14.58125 72.2201439,14.67125 71.2998561,14.75 C68.7769423,14.9505779 66.5322252,16.4322562 65.3516547,18.67625 L62.2989928,24.38 C61.6451921,24.4809476 60.9971111,24.6161326 60.3574101,24.785 C59.4193943,25.0700856 58.7073931,25.8396915 58.4943885,26.79875 C58.2357156,28.3935705 58.1566583,30.0124794 58.258705,31.625 C58.3862245,33.637596 59.9491636,35.2614361 61.9510791,35.46125 L62.388777,35.46125 C62.388777,35.46125 62.388777,35.36 62.388777,35.30375 C62.388777,32.1039502 64.9765067,29.51 68.1686331,29.51 C71.3607595,29.51 73.9484892,32.1039502 73.9484892,35.30375 C73.9419522,35.6093606 73.9119353,35.9140122 73.858705,36.215 C75.0595683,36.215 76.2716547,36.27125 77.5398561,36.27125 C79.2906475,36.27125 81.0302158,36.27125 82.691223,36.18125 C82.6384261,35.8915569 82.6084058,35.5981549 82.6014388,35.30375 C82.6014388,32.1039502 85.1891686,29.51 88.381295,29.51 C91.5734214,29.51 94.1611511,32.1039502 94.1611511,35.30375 L94.1611511,35.39375 C94.3407194,35.39375 95.5752518,35.39375 95.7435971,35.3375 C97.3906845,35.2108439 98.7028234,33.905082 98.8411511,32.255 C98.8860432,31.625 98.9309353,29.49875 98.8748201,28.91375 Z M74.6667626,23.57 C71.4906475,23.57 68.4267626,23.71625 65.9240288,23.91875 L68.0002878,20.04875 L68.0002878,20.04875 L68.3145324,19.4525 C68.9379874,18.2946913 70.1231731,17.5511012 71.4345324,17.495 L74.6443165,17.34875 L74.6667626,23.57 Z M77.6633094,23.57 L77.6633094,17.315 L79.9976978,17.43875 C81.309936,17.500124 82.5053036,18.2131619 83.185036,19.34 L84.5093525,21.59 L85.9234532,23.9075 C83.4431655,23.6825 80.5700719,23.5925 77.6633094,23.57 Z" id="Shape" fill="#FFFFFF"></path>
            <ellipse id="Oval" fill="#FFFFFF" cx="68.0900719" cy="35.57375" rx="4.01784173" ry="4.0275"></ellipse>
            <ellipse id="Oval" fill="#FFFFFF" cx="88.3700719" cy="35.57375" rx="4.01784173" ry="4.0275"></ellipse>
        </g>
    </g>
</svg>