<svg xmlns="http://www.w3.org/2000/svg" width="189" height="90" viewBox="0 0 189 90">
    <g fill="none" fill-rule="evenodd">
        <path fill="#FFF" fill-opacity=".01" d="M0 0h189v90H0z"/>
        <g fill-rule="nonzero" transform="translate(67.025 1.125)">
            <circle cx="27" cy="27" r="27" fill="#00AA13"/>
            <circle cx="37.691" cy="35.438" r="3.938" fill="#FFF"/>
            <circle cx="16.316" cy="35.438" r="3.938" fill="#FFF"/>
            <path fill="#FFF" d="M48.347 28.097a4.33 4.33 0 0 0-3.372-3.854c-2.09-.405-4.2-.706-6.32-.9l-3.81-6.009a7.935 7.935 0 0 0-6.026-3.648 59.952 59.952 0 0 0-9.434 0 7.798 7.798 0 0 0-6.25 3.979l-3.207 5.792c-.687.102-1.368.239-2.04.41a2.765 2.765 0 0 0-1.958 2.03 21.195 21.195 0 0 0-.26 4.97c.123 2.049 1.126 3.271 3.88 3.911.218.05.415.1.604.15a6.185 6.185 0 0 1 12.349.52c0 .173.001.38-.013.548 1.332.014 2.812-.015 4.51-.015 1.655 0 3.154.024 4.528.007a6.184 6.184 0 0 1 12.325-.99l.56-.114c1.871-.326 3.737-1.647 3.899-3.31.047-.786.095-2.884.035-3.477zM15.81 19.113l.315-.616.012-.022a3.249 3.249 0 0 1 2.884-1.603l3.479.003V22.5h-8.438l1.748-3.387zM25.875 22.5v-5.625l3.247-.003c.73-.01 1.437.24 1.997.708.278.24.521.517.72.826l1.43 2.28 1.043 1.814h-8.437z"/>
        </g>
        <g fill="#000" fill-rule="nonzero">
            <path d="M56.732 82.206a5.804 5.804 0 0 0 5.044 2.465c2.353 0 4.082-1.502 4.082-3.543V80.05H65.8a6.407 6.407 0 0 1-4.847 1.814 7.852 7.852 0 1 1-.141-15.7A6.75 6.75 0 0 1 65.8 67.92h.057v-1.473h4.023v14.624c0 4.25-3.372 7.198-8.105 7.198a9.69 9.69 0 0 1-8.05-3.57l3.006-2.494zm8.956-9.098c0-1.7-1.929-3.26-4.082-3.26-2.72 0-4.535 1.645-4.535 4.11a3.97 3.97 0 0 0 4.366 4.223c2.351 0 4.25-1.474 4.25-3.316v-1.757zM80.43 66.023c4.902 0 8.473 3.486 8.473 7.935 0 4.45-3.57 7.936-8.473 7.936a7.953 7.953 0 1 1 0-15.871zm0 3.683a4.251 4.251 0 1 0 4.278 4.252 4.07 4.07 0 0 0-4.278-4.252zM98.884 66.023a8.524 8.524 0 0 1 4.96 1.444 6.668 6.668 0 0 1 2.749 3.827l-3.911 1.134a3.775 3.775 0 0 0-3.798-2.722 4.254 4.254 0 0 0 0 8.503 3.697 3.697 0 0 0 3.798-2.72l3.911 1.133a6.669 6.669 0 0 1-2.749 3.826 8.524 8.524 0 0 1-4.96 1.446 7.944 7.944 0 1 1 0-15.871zM114.362 72.512c2.75-.368 3.571-.764 3.571-1.53 0-.992-1.048-1.586-2.663-1.586a3.543 3.543 0 0 0-3.742 2.691l-3.968-.822c.567-3.06 3.713-5.242 7.596-5.242 4.392 0 7.113 2.239 7.113 5.894v9.551h-3.77v-1.643h-.056a6.198 6.198 0 0 1-5.073 2.069c-3.316 0-5.611-1.814-5.611-4.478 0-2.806 1.87-4.251 6.603-4.904zm3.912 1.588h-.058c-.368.538-1.162.85-3.202 1.218-2.465.454-3.344.935-3.344 1.814 0 .908.737 1.304 2.323 1.304 2.41 0 4.28-1.105 4.28-2.55V74.1zM124.966 66.448h3.94v1.445h.055a5.812 5.812 0 0 1 4.422-1.728c.837.015 1.667.149 2.467.396l-.88 3.77a8.614 8.614 0 0 0-2.181-.312c-2.296 0-3.628 1.53-3.628 4.59v6.86h-4.195V66.447z"/>
        </g>
    </g>
</svg>
