<svg xmlns="http://www.w3.org/2000/svg" width="189" height="90" viewBox="0 0 189 90">
    <g fill="none" fill-rule="evenodd">
        <path fill="#FFF" fill-opacity=".01" d="M0 0h189v90H0z"/>
        <g fill-rule="nonzero" transform="translate(67.81 1.125)">
            <circle cx="27" cy="27" r="27" fill="#00AA13"/>
            <circle cx="14.625" cy="36" r="5.625" fill="#FFF"/>
            <path fill="#FFF" d="M46.125 36.323a5.62 5.62 0 0 1-11.227.371 2.056 2.056 0 0 1-.023-.371 5.627 5.627 0 0 1 5.625-5.625c.079-.002.158.002.236.011a5.623 5.623 0 0 1 5.389 5.614z"/>
            <path fill="#FFF" d="M42.192 27.622a1.996 1.996 0 0 1-.767.26h-.01a2.61 2.61 0 0 1-.418 0c-.068-.011-.135-.011-.203-.023a7.802 7.802 0 0 0-.71-.056h-.045a6.4 6.4 0 0 0-1.635.191 6.92 6.92 0 0 0-3.473 1.939.166.166 0 0 0-.034.045 2.32 2.32 0 0 0-.282.293 7.688 7.688 0 0 0-2.176 5.41c0 .794.118 1.584.35 2.344a36.241 36.241 0 0 1-4.196.225 55.772 55.772 0 0 1-6.348-.428 7.86 7.86 0 0 0 .293-2.141 2.792 2.792 0 0 0-.022-.429c.011-.011.011-.011 0-.022a6.937 6.937 0 0 0-.463-2.502 7.284 7.284 0 0 0-4.33-4.317 1.065 1.065 0 0 0-.315-.112.552.552 0 0 0-.192-.068c-.101-.022-.192-.056-.282-.079a1.313 1.313 0 0 1-.203-.045 7.467 7.467 0 0 0-2.086-.315 7.823 7.823 0 0 0-3.951 1.057c-.54.314-1.217.26-1.7-.135a1.508 1.508 0 0 1-.272-2.051c.53-.737 1.16-1.614 1.379-1.937l-.113-.113a2.036 2.036 0 0 1 .564-3.493 34.048 34.048 0 0 1 17.14-.676 1.69 1.69 0 0 1 1.24 1.577c.012.678-.025 1.357-.113 2.029a3.497 3.497 0 0 1-1.015 2.029 3.561 3.561 0 0 1-2.143.788 4.905 4.905 0 0 0 .113 3.945c1.24 2.367 5.751 2.592 7.104-1.352 1.128-3.269 1.58-6.537-1.128-15.328-.98.189-1.991.111-2.93-.225a.965.965 0 0 1-.79-1.014c-.018-.195.021-.39.112-.564.258-.426.75-.65 1.24-.563.59.146 1.202.184 1.805.112l-.338-.901a1.452 1.452 0 0 1 1.804-1.916 5.017 5.017 0 0 1 3.947 3.156c1.014 3.155-.903 2.479-1.579 2.254.902.45 5.863 2.93 8.231 10.706a2.21 2.21 0 0 1-1.06 2.445z"/>
        </g>
        <g fill="#000" fill-rule="nonzero">
            <path d="M52.23 82.124a5.806 5.806 0 0 0 5.046 2.466c2.353 0 4.081-1.502 4.081-3.543V79.97h-.056a6.409 6.409 0 0 1-4.847 1.814 7.852 7.852 0 1 1-.142-15.7 6.753 6.753 0 0 1 4.989 1.756h.056v-1.473h4.024V80.99c0 4.25-3.372 7.198-8.105 7.198a9.686 9.686 0 0 1-8.049-3.57l3.004-2.495zm8.957-9.097c0-1.701-1.927-3.26-4.08-3.26-2.722 0-4.536 1.645-4.536 4.11a3.97 3.97 0 0 0 4.365 4.223c2.352 0 4.25-1.474 4.25-3.317v-1.756zM75.93 65.941c4.903 0 8.473 3.486 8.473 7.936 0 4.45-3.57 7.935-8.474 7.935a7.953 7.953 0 1 1 0-15.87zm0 3.684a4.251 4.251 0 1 0 4.279 4.252 4.07 4.07 0 0 0-4.28-4.252zM86.675 66.367h3.94v1.444h.056a5.81 5.81 0 0 1 4.422-1.728c.836.016 1.666.15 2.465.397l-.879 3.77a8.607 8.607 0 0 0-2.182-.313c-2.296 0-3.627 1.53-3.627 4.591v6.86h-4.195V66.366zM99.006 59.706h4.336V63.9h-4.336v-4.194zm.086 6.66h4.194v15.021h-4.194v-15.02zM113.547 65.941a7.17 7.17 0 0 1 4.874 1.615h.057v-6.858h4.195v20.69h-3.883v-1.474h-.057a6.626 6.626 0 0 1-5.073 1.898 7.734 7.734 0 0 1-8.135-7.935 7.82 7.82 0 0 1 8.022-7.936zm4.931 6.944c0-1.785-1.984-3.26-4.28-3.26a4.17 4.17 0 0 0-4.478 4.252c0 2.578 1.758 4.223 4.478 4.223 2.382 0 4.28-1.474 4.28-3.317v-1.898zM133.08 65.941a7.774 7.774 0 0 1 8.16 8.078v1.19h-12.186c.143 1.955 1.758 3.202 4.251 3.202a5.98 5.98 0 0 0 4.62-2.24l2.607 2.61a9.188 9.188 0 0 1-7.198 3.031c-5.243 0-8.418-3.145-8.418-7.907a7.796 7.796 0 0 1 8.163-7.964zm4.08 6.32c-.198-1.785-1.757-2.92-3.996-2.92-2.268 0-3.827 1.135-4.053 2.92h8.048z"/>
        </g>
    </g>
</svg>
